<svg xmlns="http://www.w3.org/2000/svg" width="14" height="44" viewBox="0 0 14 44" fill="none">
  <g clip-path="url(#clip0_1_981)">
    <path fill-rule="evenodd" clip-rule="evenodd" d="M12.9688 25.9C12.9688 26.5 12.4688 27 11.8687 27H3.06875C2.46875 27 1.96875 26.5 1.96875 25.9V18C1.96875 17.5 2.46875 17 3.06875 17H11.9688C12.5688 17 13.0688 17.5 13.0688 18.1V25.9H12.9688ZM7.46875 14C8.66875 14 9.56875 14.9 9.76875 16H5.16875C5.36875 14.9 6.26875 14 7.46875 14ZM11.8687 16H10.7688C10.5688 14.3 9.16875 13 7.46875 13C5.76875 13 4.36875 14.3 4.16875 16H3.06875C1.86875 16 0.96875 16.9 0.96875 18.1V26C0.96875 27.1 1.86875 28 3.06875 28H11.9688C13.0688 28 14.0688 27.1 14.0688 25.9V18C13.9688 16.9 13.0687 16 11.8687 16Z" fill="white"/>
  </g>
  <defs>
    <clipPath id="clip0_1_981">
      <rect width="13" height="44" fill="white" transform="translate(0.96875)"/>
    </clipPath>
  </defs>
</svg>