<svg xmlns="http://www.w3.org/2000/svg" width="14" height="44" viewBox="0 0 14 44" fill="none">
  <g clip-path="url(#clip0_1_925)">
    <path d="M13.0729 17.5214C12.9799 17.5937 11.3481 18.5129 11.3481 20.5578C11.3481 22.9229 13.424 23.7595 13.486 23.7801C13.4757 23.8317 13.1555 24.9265 12.3912 26.0419C11.7096 27.0231 10.9969 28.0042 9.91251 28.0042C8.82811 28.0042 8.54921 27.3742 7.29951 27.3742C6.08081 27.3742 5.64701 28.0249 4.65551 28.0249C3.66401 28.0249 2.97201 27.116 2.17681 26.0006C1.25761 24.6889 0.514008 22.6543 0.514008 20.723C0.514008 17.6246 2.52801 15.9824 4.51091 15.9824C5.56441 15.9824 6.44221 16.6744 7.10321 16.6744C7.73321 16.6744 8.71441 15.9411 9.91241 15.9411C10.3669 15.9412 11.9988 15.9826 13.0729 17.5214ZM9.34451 14.6296C9.84021 14.0409 10.1914 13.225 10.1914 12.4091C10.1914 12.2955 10.1811 12.1819 10.1604 12.0889C9.35481 12.1199 8.39431 12.626 7.81591 13.2973C7.36151 13.8137 6.93801 14.6296 6.93801 15.4559C6.93801 15.5798 6.95871 15.7038 6.96901 15.7451C7.02061 15.7554 7.10331 15.7658 7.18591 15.7658C7.90891 15.7657 8.81771 15.2803 9.34451 14.6296Z" fill="white"/>
  </g>
  <defs>
    <clipPath id="clip0_1_925">
      <rect width="14" height="44" fill="white"/>
    </clipPath>
  </defs>
</svg>